<svg width="75" height="36" viewBox="0 0 75 36" fill="none" xmlns="http://www.w3.org/2000/svg">
<path fill-rule="evenodd" clip-rule="evenodd" d="M49.2328 31.44C62.9099 35.5391 73.32 36.3425 74.7552 32.8861C76.2009 29.4044 68.1312 22.5857 55.3768 15.8309C54.2172 7.51094 47.0418 1.10538 38.3632 1.10538C34.5509 1.10538 31.0287 2.34142 28.179 4.43281C13.3343 -0.301504 1.776 -1.41118 0.257981 2.24463C-1.24953 5.87516 7.58958 13.1343 21.298 20.1658C22.277 28.6825 29.5439 35.2974 38.3632 35.2974C42.4873 35.2974 46.2719 33.851 49.2328 31.44ZM49.2328 31.44C53.0831 28.3049 55.5406 23.5388 55.5406 18.2014C55.5406 17.397 55.4848 16.6056 55.3768 15.8309C51.0617 13.5455 46.2104 11.2675 41.0099 9.12848C36.5784 7.30576 32.2548 5.73266 28.179 4.43281C23.9374 7.54577 21.1858 12.5538 21.1858 18.2014C21.1858 18.8657 21.2239 19.5212 21.298 20.1658C25.1835 22.1588 29.4602 24.1336 34.0033 26.0022C39.3152 28.187 44.4719 30.0132 49.2328 31.44Z" fill="white" style="mix-blend-mode:exclusion"/>
</svg>
